<?xml version="1.0" encoding="UTF-8"?>
<svg width="128px" height="128px" viewBox="0 0 128 128" version="1.1" xmlns="http://www.w3.org/2000/svg" xmlns:xlink="http://www.w3.org/1999/xlink">
    <!-- Generator: Sketch 43.2 (39069) - http://www.bohemiancoding.com/sketch -->
    <title>Group 2</title>
    <desc>Created with Sketch.</desc>
    <defs></defs>
    <g id="Icon" stroke="none" stroke-width="1" fill="none" fill-rule="evenodd">
        <g id="Group-2">
            <circle id="Oval" fill="#474F60" cx="64" cy="64" r="64"></circle>
            <g id="1495930317_question_mark" transform="translate(33.000000, 17.000000)" fill-rule="nonzero" fill="#E1E4E9">
                <path d="M9.69876923,21.159 C9.20476923,21.5799231 7.36761538,23.7561538 6.51992308,26.7040769 C5.67223077,29.652 6.30946154,33.7223846 6.37961538,34.706 C6.44976923,35.6881538 8.78238462,35.2672308 9.13461538,34.9164615 C9.48538462,34.5656923 9.06153846,34.4253846 8.85107692,29.7221538 C8.63915385,25.0189231 10.83,22.5635385 10.83,22.2829231 C10.83,22.0023077 10.1313846,20.7921538 9.69876923,21.1575385 L9.69876923,21.159 Z M33.7220769,78.9248462 C28.5628462,78.7845385 22.9826923,81.2413846 23.0528462,86.7879231 C23.123,92.3315385 27.9986923,94.2973077 31.673,94.5077692 C35.3487692,94.7167692 44.9583846,94.0152308 44.8166154,88.3985385 C44.6748462,82.7833077 39.8766154,79.0885385 33.7235385,78.9233846 L33.7220769,78.9248462 Z M32.3803846,91.4882308 C29.1299231,91.4882308 26.7286154,88.8209231 26.657,86.7148462 C26.5839231,84.6102308 28.5628462,81.5205385 34.0041538,81.3802308 C36.4741538,81.3159231 40.9289231,83.0653846 41.2095385,87.0656154 C41.4930769,91.0673077 35.6264615,91.4882308 32.3789231,91.4882308 L32.3803846,91.4882308 Z M32.6624615,1.01461538 C15.1386154,0.523538462 3.33961538,12.0346154 0.727846154,22.4232308 C-1.88830769,32.8118462 3.35861538,46.7622308 3.90523077,46.9186154 C12.2433077,49.3053077 24.0423077,44.0393846 24.396,43.4109231 C24.7496923,42.7780769 25.5973846,42.1466923 22.5588462,36.3911538 C19.5203077,30.6356154 23.4065385,21.5126923 32.0968462,22.774 C40.7886154,24.0367692 41.9914615,31.1266923 40.7886154,36.6001538 C39.5872308,42.0765385 35.2786154,46.9916923 30.7551538,53.3055385 C26.2331538,59.6237692 26.4436154,69.3093846 27.0106923,70.9243846 C27.5763077,72.5379231 40.223,72.8901538 43.1197692,72.4005385 C46.0165385,71.908 44.8882308,74.435 48.4894615,61.5193846 C52.0936154,48.6052308 62.3375385,45.2349231 62.833,27.3369231 C63.3284615,9.43746154 50.1848462,1.50715385 32.6624615,1.01461538 Z M59.1601538,29.9326154 C58.7363077,29.5116923 55.4843846,22.6336923 54.7784615,22.6336923 C54.0725385,22.6336923 53.295,23.5456923 53.5069231,23.7561538 C53.7188462,23.9666154 58.6661538,31.4073077 58.7348462,32.1088462 C58.805,32.8103846 57.9573077,35.8986154 57.8871538,35.6896154 C57.817,35.4776923 53.295,26.8443846 52.8711538,26.8443846 C52.4473077,26.8443846 51.4578462,27.8265385 51.8115385,28.3176154 C52.1652308,28.8101538 57.3215385,37.5837692 57.3215385,37.5837692 C57.3215385,37.5837692 55.9798462,40.8824615 55.7679231,40.7406923 C55.556,40.6018462 50.9638462,31.6177692 50.6817692,31.6177692 C50.3996923,31.6177692 49.761,32.8805385 49.9027692,33.2327692 C50.0445385,33.5835385 55.062,41.8660769 55.062,42.4258462 C55.062,42.9885385 52.8696923,45.5856923 52.8696923,45.5856923 C52.8696923,45.5856923 48.982,36.8120769 48.6312308,36.8120769 C48.2760769,36.8120769 47.5,38.4972308 47.5,38.4972308 C47.5,38.4972308 51.8802308,47.1305385 51.8802308,47.3395385 C51.8802308,47.5514615 50.255,50.0784615 50.255,50.0784615 C50.255,50.0784615 47.006,42.2153846 46.7940769,42.2153846 C46.5821538,42.2153846 45.5926923,43.5483077 45.7344615,43.8289231 C45.8762308,44.1095385 49.1983077,51.1293077 49.1983077,51.4800769 C49.1983077,51.8308462 47.8536923,55.6893077 47.6417692,55.4788462 C47.4298462,55.2683846 44.0376154,46.9142308 43.7540769,46.8455385 C43.4734615,46.7724615 42.3422308,48.3187692 42.6959231,48.8098462 C43.0496154,49.3009231 46.7940769,57.1625385 46.7940769,57.5133077 C46.7940769,57.8640769 45.8046154,60.8105385 45.5926923,60.7403846 C45.3807692,60.6702308 41.2811538,51.5473077 41.2811538,51.5473077 C41.2811538,51.5473077 40.0096154,52.9503846 40.1528462,53.3713077 C40.2960769,53.7922308 44.6046923,62.6374615 44.6046923,62.6374615 L43.1899231,66.1451538 C43.1899231,66.1451538 38.8783846,55.9684615 38.6679231,55.9684615 C38.456,55.9684615 37.6083077,57.7223077 37.7500769,58.1461538 C37.8918462,58.57 42.8362308,68.1109231 42.6959231,68.6034615 C42.5541538,69.0945385 41.0005385,69.305 40.6468462,69.0243846 C40.2931538,68.7437692 35.9114615,60.109 35.9114615,60.109 C35.9114615,60.109 34.8533077,61.5120769 35.207,61.9359231 C35.5606923,62.3568462 39.235,69.0945385 38.8813077,69.0945385 C38.5276154,69.0945385 36.1964615,69.5154615 36.1964615,69.0945385 C36.1964615,68.6736154 34.5712308,64.8853077 34.2175385,64.8122308 C33.8638462,64.7391538 32.8042308,65.2360769 32.8729231,65.6555385 C32.946,66.0793846 34.9921538,69.0258462 34.4996154,69.0258462 C34.0056154,69.0258462 30.8253077,68.6750769 30.685,68.4646154 C30.5417692,68.2541538 30.7536923,60.6015385 33.2982308,55.9713846 C35.8413077,51.3383077 43.8943846,42.2139231 44.4614615,35.827 C45.0270769,29.4400769 43.0481538,24.3875385 36.4770769,20.4574615 C29.9045385,16.5259231 20.7903846,20.1066923 18.5293846,27.8966923 C16.2683846,35.6866923 21.2843846,41.3048462 21.2843846,41.8660769 C21.2843846,42.4273077 11.4628462,45.3737692 6.58715385,43.693 C6.58715385,43.693 2.76961538,34.7074615 3.62023077,26.2860769 C4.46792308,17.8617692 12.5940769,9.64938462 18.5279231,6.84176923 C24.4617692,4.03415385 38.171,2.91023077 45.5883077,5.85961538 C53.0056154,8.809 56.6112308,15.6855385 57.5992308,18.7737692 C57.5992308,18.7737692 55.7620769,17.5811538 55.5501538,17.6513077 C55.3382308,17.7214615 54.9158462,18.9842308 55.3396923,19.2648462 C55.7635385,19.5454615 58.8035385,23.3352308 59.014,24.0382308 C59.2259231,24.7397692 59.5796154,30.3520769 59.1557692,29.9311538 L59.1601538,29.9326154 Z M31.1059231,83.346 C28.7031538,83.9773846 28.4210769,86.9954615 28.7031538,88.1193846 C28.9852308,89.2418462 30.6820769,89.0313846 31.0343077,88.8209231 C31.388,88.6104615 31.0343077,88.4701538 30.8223846,87.1357692 C30.6104615,85.8028462 32.2356923,84.2565385 32.5177692,84.0475385 C32.8027692,83.8385385 31.8703077,83.1457692 31.1059231,83.346 Z" id="Shape"></path>
            </g>
        </g>
    </g>
</svg>